<?xml version="1.0" standalone="no"?>
<!DOCTYPE svg PUBLIC "-//W3C//DTD SVG 20010904//EN"
 "http://www.w3.org/TR/2001/REC-SVG-20010904/DTD/svg10.dtd">
<svg version="1.0" xmlns="http://www.w3.org/2000/svg"
 width="302.000000pt" height="292.000000pt" viewBox="0 0 302.000000 292.000000"
 preserveAspectRatio="xMidYMid meet">
<metadata>
Created by potrace 1.16, written by Peter Selinger 2001-2019
</metadata>
<g transform="translate(0.000000,292.000000) scale(0.100000,-0.100000)"
fill="#000000" stroke="none">
<path d="M1441 2752 c-36 -71 -68 -123 -78 -126 -10 -3 -69 -13 -130 -22 -62
-10 -113 -21 -113 -24 0 -4 42 -48 94 -99 l94 -92 -20 -125 c-12 -68 -18 -127
-15 -130 3 -3 56 21 118 54 l113 60 119 -59 c66 -33 121 -58 124 -56 2 3 -6
62 -18 131 l-23 127 94 94 c52 52 91 97 88 100 -3 3 -47 12 -99 20 -52 8 -109
17 -127 20 -30 5 -37 15 -87 113 -30 59 -58 113 -64 121 -7 11 -25 -16 -70
-107z"/>
<path d="M2325 2200 c-49 -98 -63 -120 -84 -124 -15 -3 -73 -13 -131 -22 -58
-9 -107 -18 -110 -21 -3 -2 39 -46 93 -96 l97 -92 -21 -128 c-12 -70 -19 -130
-16 -133 3 -4 57 21 119 54 l113 60 119 -59 c66 -33 121 -57 124 -55 2 3 -6
61 -18 130 l-22 126 91 97 c62 65 87 99 79 104 -7 3 -51 12 -98 18 -165 23
-144 9 -211 142 -32 66 -60 119 -62 119 -1 0 -29 -54 -62 -120z"/>
<path d="M1161 2004 c-52 -37 -51 -20 -51 -917 0 -585 3 -844 11 -866 21 -59
34 -61 384 -61 360 0 366 1 385 69 7 27 10 311 8 878 -3 901 -2 878 -55 902
-16 7 -130 11 -341 11 -277 0 -320 -2 -341 -16z"/>
<path d="M551 1742 l-60 -119 -108 -17 c-175 -28 -169 -15 -59 -125 l96 -96
-20 -115 c-11 -63 -20 -123 -20 -133 0 -15 20 -8 118 44 l117 62 123 -62 c67
-34 122 -56 122 -50 0 7 -9 65 -20 131 l-21 119 30 37 c16 20 57 64 90 97 34
33 61 62 61 65 0 4 -57 14 -128 24 l-127 18 -63 119 c-35 66 -65 119 -67 119
-3 0 -32 -53 -64 -118z"/>
<path d="M2043 1458 c-51 -25 -53 -44 -53 -647 0 -383 3 -568 11 -590 21 -59
34 -61 389 -61 211 0 328 4 342 11 47 25 48 42 48 636 0 353 -4 572 -10 595
-19 69 -17 68 -380 67 -207 0 -333 -4 -347 -11z"/>
<path d="M290 997 c-14 -7 -33 -28 -43 -47 -16 -32 -17 -67 -15 -387 3 -352 3
-353 26 -375 22 -23 24 -23 352 -26 362 -3 382 0 397 56 5 15 8 182 8 372 0
316 -2 348 -18 373 -10 16 -29 32 -43 37 -40 15 -633 13 -664 -3z"/>
</g>
</svg>
